<svg width="110" height="110" viewBox="0 0 110 110" fill="none" xmlns="http://www.w3.org/2000/svg">
<rect width="96.995" height="100.121" rx="15" transform="matrix(1 -0.000478096 0.000471814 1 0 9.87891)" fill="black"/>
<path d="M25.0814 0.0410773C21.8658 0.0426149 18.7826 1.38444 16.5099 3.77136C14.2373 6.15828 12.9614 9.39477 12.963 12.7688L12.999 89.1007C13.0006 92.4748 14.2795 95.71 16.5544 98.0948C18.8293 100.48 21.9138 101.818 25.1294 101.817L97.8757 101.782C101.091 101.781 104.174 100.439 106.447 98.0518C108.72 95.6649 109.996 92.4284 109.994 89.0543L109.958 12.7225C109.956 9.34839 108.678 6.11312 106.403 3.72837C104.128 1.34363 101.043 0.00475329 97.8276 0.00629094L25.0814 0.0410773ZM64.4991 28.6467L64.5081 47.7296L82.6947 47.7209C83.4986 47.7205 84.2697 48.0553 84.8384 48.6515C85.4072 49.2476 85.7269 50.0565 85.7273 50.9C85.7277 51.7435 85.4087 52.5526 84.8406 53.1494C84.2724 53.7461 83.5016 54.0815 82.6977 54.0819L64.5111 54.0906L64.5201 73.1736C64.5205 74.0171 64.2016 74.8262 63.6334 75.4229C63.0652 76.0197 62.2944 76.3551 61.4905 76.3555C60.6866 76.3559 59.9155 76.0212 59.3468 75.425C58.7781 74.8288 58.4583 74.02 58.4579 73.1765L58.4489 54.0935L40.2624 54.1022C39.4585 54.1026 38.6874 53.7679 38.1186 53.1717C37.5499 52.5755 37.2302 51.7667 37.2298 50.9232C37.2294 50.0796 37.5484 49.2705 38.1165 48.6738C38.6847 48.0771 39.4555 47.7416 40.2594 47.7412L58.4459 47.7325L58.4369 28.6496C58.4365 27.8061 58.7555 26.9969 59.3237 26.4002C59.8918 25.8035 60.6626 25.468 61.4665 25.4676C62.2704 25.4672 63.0416 25.802 63.6103 26.3981C64.179 26.9943 64.4987 27.8032 64.4991 28.6467Z" fill="white"/>
</svg>
