<svg width="41" height="47" viewBox="0 0 41 47" fill="none" xmlns="http://www.w3.org/2000/svg">
<path d="M12.7041 4.67063C9.91481 5.44118 7.14454 6.2796 4.3958 7.18513C4.14461 7.26638 3.92131 7.41692 3.75143 7.61952C3.58156 7.82212 3.47197 8.0686 3.43523 8.33075C1.8128 20.5419 5.56137 29.4514 10.0333 35.3205C11.9258 37.831 14.1836 40.0422 16.7309 41.8799C17.7442 42.5967 18.6404 43.1137 19.3461 43.4456C19.6976 43.6121 19.9836 43.7276 20.2042 43.7923C20.3015 43.8219 20.4002 43.8464 20.5 43.8657C20.5988 43.8463 20.6966 43.8218 20.7929 43.7923C21.0154 43.7257 21.3024 43.6101 21.6539 43.4456C22.3567 43.1137 23.2558 42.5938 24.2691 41.8799C26.8164 40.0422 29.0742 37.831 30.9667 35.3205C35.4386 29.4543 39.1872 20.5419 37.5648 8.33075C37.528 8.0686 37.4184 7.82212 37.2486 7.61952C37.0787 7.41692 36.8554 7.26638 36.6042 7.18513C34.6977 6.55944 31.4792 5.54012 28.2959 4.67356C25.0451 3.78937 22.0551 3.13431 20.5 3.13431C18.9479 3.13431 15.9549 3.78644 12.7041 4.67063ZM11.9251 1.645C15.1026 0.778438 18.4793 0 20.5 0C22.5207 0 25.8974 0.778438 29.0749 1.645C32.3256 2.52625 35.6026 3.56906 37.5296 4.20062C38.3353 4.4675 39.0496 4.95693 39.5904 5.61268C40.1312 6.26844 40.4767 7.06392 40.5871 7.90775C42.3325 21.0589 38.2823 30.8056 33.3681 37.2534C31.2835 40.0109 28.7988 42.4397 25.9969 44.4591C25.0291 45.1595 24.0022 45.7738 22.9278 46.295C22.1078 46.6828 21.2263 47 20.5 47C19.7737 47 18.8951 46.6828 18.0722 46.295C16.9978 45.7738 15.9709 45.1595 15.0031 44.4591C12.2012 42.4397 9.71655 40.0109 7.63187 37.2534C2.71773 30.8056 -1.33248 21.0589 0.412944 7.90775C0.523314 7.06392 0.868756 6.26844 1.40959 5.61268C1.95042 4.95693 2.6647 4.4675 3.47037 4.20062C6.2679 3.28121 9.08697 2.4291 11.9251 1.645Z" fill="#BD1010"/>
<path d="M25 19.362C25.0005 20.2649 24.7122 21.1457 24.1749 21.883C23.6376 22.6204 22.8777 23.178 22 23.4789L23.155 29.2688C23.197 29.4794 23.1905 29.6964 23.1359 29.9043C23.0813 30.1121 22.98 30.3057 22.8393 30.4712C22.6985 30.6366 22.5217 30.7698 22.3217 30.8612C22.1216 30.9527 21.9032 31 21.682 31H19.318C19.0971 30.9996 18.879 30.9519 18.6793 30.8603C18.4796 30.7687 18.3032 30.6354 18.1628 30.47C18.0223 30.3047 17.9213 30.1112 17.8669 29.9036C17.8125 29.6959 17.806 29.4792 17.848 29.2688L19 23.4789C18.2223 23.2123 17.5351 22.7434 17.0136 22.1236C16.492 21.5038 16.1562 20.7568 16.0428 19.9644C15.9293 19.172 16.0426 18.3646 16.3704 17.6304C16.6981 16.8963 17.2276 16.2636 17.901 15.8015C18.5744 15.3395 19.3658 15.0658 20.1887 15.0105C21.0116 14.9551 21.8344 15.1202 22.5671 15.4877C23.2998 15.8552 23.9143 16.4109 24.3433 17.0942C24.7724 17.7775 24.9996 18.562 25 19.362Z" fill="#BD1010"/>
</svg>
