<svg width="111" height="116" viewBox="0 0 111 116" fill="none" xmlns="http://www.w3.org/2000/svg">
<path d="M7.74611 10.3744C5.69171 10.3744 3.72146 11.1627 2.26878 12.5658C0.816105 13.9689 0 15.8719 0 17.8562V25.3381C0 27.3224 0.816105 29.2254 2.26878 30.6285C3.72146 32.0316 5.69171 32.8199 7.74611 32.8199H11.6192V100.156C11.6192 104.125 13.2514 107.931 16.1567 110.737C19.0621 113.543 23.0026 115.12 27.1114 115.12H73.588C77.6968 115.12 81.6373 113.543 84.5426 110.737C87.448 107.931 89.0802 104.125 89.0802 100.156V32.8199H92.9533C95.0077 32.8199 96.9779 32.0316 98.4306 30.6285C99.8833 29.2254 100.699 27.3224 100.699 25.3381V17.8562C100.699 15.8719 99.8833 13.9689 98.4306 12.5658C96.9779 11.1627 95.0077 10.3744 92.9533 10.3744H65.8419C65.8419 8.3901 65.0258 6.48707 63.5731 5.08396C62.1204 3.68084 60.1502 2.89258 58.0958 2.89258H42.6036C40.5492 2.89258 38.5789 3.68084 37.1263 5.08396C35.6736 6.48707 34.8575 8.3901 34.8575 10.3744H7.74611ZM30.9844 40.3017C32.0116 40.3017 32.9967 40.6959 33.7231 41.3974C34.4494 42.099 34.8575 43.0505 34.8575 44.0426V96.4154C34.8575 97.4076 34.4494 98.3591 33.7231 99.0607C32.9967 99.7622 32.0116 100.156 30.9844 100.156C29.9572 100.156 28.9721 99.7622 28.2458 99.0607C27.5194 98.3591 27.1114 97.4076 27.1114 96.4154V44.0426C27.1114 43.0505 27.5194 42.099 28.2458 41.3974C28.9721 40.6959 29.9572 40.3017 30.9844 40.3017ZM50.3497 40.3017C51.3769 40.3017 52.362 40.6959 53.0884 41.3974C53.8147 42.099 54.2227 43.0505 54.2227 44.0426V96.4154C54.2227 97.4076 53.8147 98.3591 53.0884 99.0607C52.362 99.7622 51.3769 100.156 50.3497 100.156C49.3225 100.156 48.3374 99.7622 47.611 99.0607C46.8847 98.3591 46.4766 97.4076 46.4766 96.4154V44.0426C46.4766 43.0505 46.8847 42.099 47.611 41.3974C48.3374 40.6959 49.3225 40.3017 50.3497 40.3017ZM73.588 44.0426V96.4154C73.588 97.4076 73.18 98.3591 72.4536 99.0607C71.7273 99.7622 70.7421 100.156 69.715 100.156C68.6878 100.156 67.7026 99.7622 66.9763 99.0607C66.2499 98.3591 65.8419 97.4076 65.8419 96.4154V44.0426C65.8419 43.0505 66.2499 42.099 66.9763 41.3974C67.7026 40.6959 68.6878 40.3017 69.715 40.3017C70.7421 40.3017 71.7273 40.6959 72.4536 41.3974C73.18 42.099 73.588 43.0505 73.588 44.0426Z" fill="black"/>
<path d="M17.3369 7.48183C15.2825 7.48183 13.3123 8.27009 11.8596 9.6732C10.4069 11.0763 9.59082 12.9794 9.59082 14.9637V22.4455C9.59082 24.4298 10.4069 26.3328 11.8596 27.7359C13.3123 29.1391 15.2825 29.9273 17.3369 29.9273H21.21V97.2638C21.21 101.232 22.8422 105.038 25.7475 107.845C28.6529 110.651 32.5934 112.227 36.7022 112.227H83.1788C87.2876 112.227 91.2281 110.651 94.1335 107.845C97.0388 105.038 98.671 101.232 98.671 97.2638V29.9273H102.544C104.598 29.9273 106.569 29.1391 108.021 27.7359C109.474 26.3328 110.29 24.4298 110.29 22.4455V14.9637C110.29 12.9794 109.474 11.0763 108.021 9.6732C106.569 8.27009 104.598 7.48183 102.544 7.48183H75.4327C75.4327 5.49752 74.6166 3.59449 73.1639 2.19138C71.7113 0.788262 69.741 0 67.6866 0L52.1944 0C50.14 0 48.1698 0.788262 46.7171 2.19138C45.2644 3.59449 44.4483 5.49752 44.4483 7.48183H17.3369ZM40.5752 37.4091C41.6024 37.4091 42.5876 37.8033 43.3139 38.5048C44.0402 39.2064 44.4483 40.1579 44.4483 41.1501V93.5229C44.4483 94.515 44.0402 95.4665 43.3139 96.1681C42.5876 96.8696 41.6024 97.2638 40.5752 97.2638C39.548 97.2638 38.5629 96.8696 37.8366 96.1681C37.1102 95.4665 36.7022 94.515 36.7022 93.5229V41.1501C36.7022 40.1579 37.1102 39.2064 37.8366 38.5048C38.5629 37.8033 39.548 37.4091 40.5752 37.4091ZM59.9405 37.4091C60.9677 37.4091 61.9528 37.8033 62.6792 38.5048C63.4055 39.2064 63.8136 40.1579 63.8136 41.1501V93.5229C63.8136 94.515 63.4055 95.4665 62.6792 96.1681C61.9528 96.8696 60.9677 97.2638 59.9405 97.2638C58.9133 97.2638 57.9282 96.8696 57.2018 96.1681C56.4755 95.4665 56.0675 94.515 56.0675 93.5229V41.1501C56.0675 40.1579 56.4755 39.2064 57.2018 38.5048C57.9282 37.8033 58.9133 37.4091 59.9405 37.4091ZM83.1788 41.1501V93.5229C83.1788 94.515 82.7708 95.4665 82.0444 96.1681C81.3181 96.8696 80.333 97.2638 79.3058 97.2638C78.2786 97.2638 77.2934 96.8696 76.5671 96.1681C75.8408 95.4665 75.4327 94.515 75.4327 93.5229V41.1501C75.4327 40.1579 75.8408 39.2064 76.5671 38.5048C77.2934 37.8033 78.2786 37.4091 79.3058 37.4091C80.333 37.4091 81.3181 37.8033 82.0444 38.5048C82.7708 39.2064 83.1788 40.1579 83.1788 41.1501Z" fill="#F2F2F2"/>
</svg>
