<svg width="110" height="106" viewBox="0 0 110 106" fill="none" xmlns="http://www.w3.org/2000/svg">
<path d="M96.636 13.5902C97.2851 14.2487 97.6496 15.1406 97.6496 16.0704C97.6496 17.0003 97.2851 17.8922 96.636 18.5507L89.3897 25.886L75.4946 11.8337L82.7409 4.49831C83.3923 3.83971 84.2757 3.46973 85.1969 3.46973C86.118 3.46973 87.0014 3.83971 87.6528 4.49831L96.636 13.5832V13.5902ZM84.4778 30.8465L70.5828 16.7941L23.2493 64.6706C22.8669 65.0572 22.5791 65.5288 22.4086 66.0477L16.8159 83.0089C16.7145 83.3181 16.7001 83.6498 16.7743 83.9668C16.8485 84.2838 17.0085 84.5737 17.2363 84.8041C17.464 85.0344 17.7507 85.1962 18.0642 85.2713C18.3776 85.3463 18.7055 85.3318 19.0113 85.2292L35.7826 79.5731C36.2951 79.4028 36.7613 79.1141 37.1443 78.73L84.4778 30.8465Z" fill="black"/>
<path fill-rule="evenodd" clip-rule="evenodd" d="M0 95.4611C0 98.2563 1.09795 100.937 3.05232 102.914C5.00669 104.89 7.65739 106 10.4213 106H86.844C89.6079 106 92.2586 104.89 94.213 102.914C96.1674 100.937 99.8385 98.2563 99.8385 95.4611V53.304C99.8385 52.3723 100.147 50.9702 99.4954 50.3114C98.8439 49.6525 94.7128 49.7909 93.7915 49.7909C92.8702 49.7909 91.9867 50.161 91.3352 50.8199C90.6838 51.4787 90.3178 52.3723 90.3178 53.304V95.4611C90.3178 96.3929 89.9518 97.2864 89.3003 97.9453C88.6489 98.6041 87.7653 98.9742 86.844 98.9742L16.1251 96.7595C15.2038 96.7595 15.4042 96.7244 14.7528 96.0655C14.1013 95.4067 14.7528 94.2215 14.7528 93.2898L14.0666 55.8168V19.3847C14.4097 17.002 14.4444 15.8798 15.0958 15.221C15.7473 14.5622 12.116 14.874 13.0373 14.874L55.5802 14.66C56.5015 14.66 57.385 14.2898 58.0365 13.631C58.688 12.9722 59.0539 12.0786 59.0539 11.1469C59.0539 10.2152 58.688 9.32158 58.0365 8.66275C57.385 8.00392 56.5015 7.63379 55.5802 7.63379H10.4213C7.65739 7.63379 5.00669 8.74417 3.05232 10.7207C1.09795 12.6972 0 15.3779 0 18.1731V95.4611Z" fill="black"/>
<path d="M108.987 10.1205C109.636 10.779 110 11.6709 110 12.6007C110 13.5305 109.636 14.4224 108.987 15.081L101.74 22.4163L87.8452 8.36393L95.0915 1.02859C95.7429 0.369983 96.6263 0 97.5475 0C98.4686 0 99.352 0.369983 100.003 1.02859L108.987 10.1134V10.1205ZM96.8284 27.3768L82.9333 13.3244L35.5999 61.2008C35.2175 61.5875 34.9296 62.059 34.7592 62.578L29.1665 79.5392C29.065 79.8484 29.0506 80.1801 29.1249 80.4971C29.1991 80.8141 29.3591 81.104 29.5868 81.3343C29.8146 81.5647 30.1013 81.7265 30.4147 81.8015C30.7282 81.8766 31.0561 81.862 31.3619 81.7595L48.1332 76.1034C48.6457 75.9331 49.1119 75.6444 49.4949 75.2603L96.8284 27.3768Z" fill="white"/>
<path fill-rule="evenodd" clip-rule="evenodd" d="M8.23438 91.343C8.23438 94.1382 9.33233 96.8189 11.2867 98.7954C13.2411 100.772 15.8918 101.882 18.6557 101.882H95.0784C97.8423 101.882 100.493 100.772 102.447 98.7954C104.402 96.8189 105.5 94.1382 105.5 91.343V49.1858C105.5 48.2541 105.134 47.3605 104.482 46.7017C103.831 46.0429 102.947 45.6727 102.026 45.6727C101.105 45.6727 100.221 46.0429 99.5696 46.7017C98.9181 47.3605 98.5522 48.2541 98.5522 49.1858V91.343C98.5522 92.2747 98.1862 93.1683 97.5347 93.8271C96.8833 94.4859 95.9997 94.8561 95.0784 94.8561H18.6557C17.7344 94.8561 16.8508 94.4859 16.1993 93.8271C15.5479 93.1683 15.1819 92.2747 15.1819 91.343V14.0549C15.1819 13.1232 15.5479 12.2296 16.1993 11.5708C16.8508 10.9119 17.7344 10.5418 18.6557 10.5418H63.8145C64.7358 10.5418 65.6194 10.1717 66.2709 9.51285C66.9223 8.85402 67.2883 7.96045 67.2883 7.02872C67.2883 6.09699 66.9223 5.20342 66.2709 4.54459C65.6194 3.88575 64.7358 3.51563 63.8145 3.51562H18.6557C15.8918 3.51563 13.2411 4.62601 11.2867 6.60251C9.33233 8.57901 8.23438 11.2597 8.23438 14.0549V91.343Z" fill="white"/>
</svg>
