<svg width="100" height="100" viewBox="0 0 100 100" fill="none" xmlns="http://www.w3.org/2000/svg">
<path d="M44.1781 4.54688C45.6969 -1.51562 54.3031 -1.51562 55.8281 4.54688L56.2719 6.33437C56.5315 7.37317 57.0644 8.32356 57.8153 9.08692C58.5661 9.85029 59.5076 10.3988 60.5419 10.6756C61.5763 10.9523 62.6659 10.9473 63.6976 10.6609C64.7294 10.3745 65.6657 9.8172 66.4094 9.04688L67.6906 7.72813C72.0344 3.23438 79.4906 7.54062 77.7719 13.5469L77.2719 15.3219C76.9775 16.3509 76.9638 17.44 77.2321 18.4761C77.5004 19.5123 78.041 20.4578 78.7979 21.2146C79.5547 21.9715 80.5002 22.5121 81.5364 22.7804C82.5725 23.0487 83.6616 23.035 84.6906 22.7406L86.4594 22.2344C92.4594 20.5156 96.7719 27.9719 92.2781 32.3156L90.9594 33.5969C90.189 34.3406 89.6318 35.2769 89.3454 36.3086C89.059 37.3404 89.0539 38.43 89.3307 39.4643C89.6074 40.4987 90.156 41.4401 90.9193 42.191C91.6827 42.9418 92.6331 43.4747 93.6719 43.7344L95.4594 44.1781C101.522 45.6969 101.522 54.3031 95.4594 55.8281L93.6719 56.2719C92.6331 56.5315 91.6827 57.0644 90.9193 57.8153C90.156 58.5661 89.6074 59.5076 89.3307 60.5419C89.0539 61.5763 89.059 62.6659 89.3454 63.6976C89.6318 64.7294 90.189 65.6657 90.9594 66.4094L92.2781 67.6906C96.7719 72.0344 92.4656 79.4906 86.4594 77.7719L84.6844 77.2719C83.6553 76.9775 82.5663 76.9638 81.5301 77.2321C80.494 77.5004 79.5484 78.041 78.7916 78.7979C78.0348 79.5547 77.4942 80.5002 77.2259 81.5364C76.9575 82.5725 76.9713 83.6616 77.2656 84.6906L77.7719 86.4594C79.4906 92.4594 72.0344 96.7719 67.6906 92.2781L66.4094 90.9594C65.6657 90.189 64.7294 89.6318 63.6976 89.3454C62.6659 89.059 61.5763 89.0539 60.5419 89.3307C59.5076 89.6074 58.5661 90.156 57.8153 90.9193C57.0644 91.6827 56.5315 92.6331 56.2719 93.6719L55.8281 95.4594C54.3094 101.522 45.7031 101.522 44.1781 95.4594L43.7344 93.6719C43.4747 92.6331 42.9418 91.6827 42.191 90.9193C41.4401 90.156 40.4987 89.6074 39.4643 89.3307C38.43 89.0539 37.3404 89.059 36.3086 89.3454C35.2769 89.6318 34.3406 90.189 33.5969 90.9594L32.3156 92.2781C27.9719 96.7719 20.5156 92.4656 22.2344 86.4594L22.7344 84.6844C23.0282 83.656 23.0417 82.5677 22.7737 81.5323C22.5056 80.4969 21.9656 79.5519 21.2096 78.7953C20.4536 78.0387 19.5092 77.498 18.474 77.229C17.4388 76.96 16.3505 76.9727 15.3219 77.2656L13.5469 77.7719C7.54688 79.4906 3.23438 72.0344 7.72813 67.6906L9.04688 66.4094C9.8172 65.6657 10.3745 64.7294 10.6609 63.6976C10.9473 62.6659 10.9523 61.5763 10.6756 60.5419C10.3988 59.5076 9.85029 58.5661 9.08692 57.8153C8.32356 57.0644 7.37317 56.5315 6.33437 56.2719L4.54688 55.8281C-1.51562 54.3094 -1.51562 45.7031 4.54688 44.1781L6.33437 43.7344C7.37317 43.4747 8.32356 42.9418 9.08692 42.191C9.85029 41.4401 10.3988 40.4987 10.6756 39.4643C10.9523 38.43 10.9473 37.3404 10.6609 36.3086C10.3745 35.2769 9.8172 34.3406 9.04688 33.5969L7.72813 32.3156C3.23438 27.9719 7.54062 20.5156 13.5469 22.2344L15.3219 22.7344C16.3503 23.0282 17.4385 23.0417 18.474 22.7737C19.5094 22.5056 20.4543 21.9656 21.2109 21.2096C21.9675 20.4536 22.5083 19.5092 22.7772 18.474C23.0462 17.4388 23.0336 16.3505 22.7406 15.3219L22.2344 13.5469C20.5156 7.54688 27.9719 3.23438 32.3156 7.72813L33.5969 9.04688C34.3406 9.8172 35.2769 10.3745 36.3086 10.6609C37.3404 10.9473 38.43 10.9523 39.4643 10.6756C40.4987 10.3988 41.4401 9.85029 42.191 9.08692C42.9418 8.32356 43.4747 7.37317 43.7344 6.33437L44.1781 4.54688ZM81.0844 53.1281H51.5656L33.8531 76.7469C38.3649 79.4719 43.4928 81.011 48.7594 81.2209C54.026 81.4307 59.2602 80.3045 63.9744 77.9471C68.6886 75.5896 72.7297 72.0776 75.7213 67.7381C78.713 63.3986 80.5579 58.3726 81.0844 53.1281ZM81.0844 46.8781C80.5579 41.6337 78.713 36.6077 75.7213 32.2681C72.7297 27.9286 68.6886 24.4166 63.9744 22.0592C59.2602 19.7018 54.026 18.5755 48.7594 18.7854C43.4928 18.9952 38.3649 20.5343 33.8531 23.2594L51.5656 46.8844L81.0844 46.8781ZM28.8594 27.0156C25.6729 29.9363 23.1298 33.4888 21.3919 37.4465C19.6541 41.4043 18.7597 45.6806 18.7656 50.0031C18.7656 59.0969 22.6531 67.2844 28.8594 72.9906L46.0969 50.0031L28.8594 27.0156Z" fill="white"/>
</svg>
