<svg width="118" height="107" viewBox="0 0 118 107" fill="none" xmlns="http://www.w3.org/2000/svg">
<path d="M7.04066 0.351628L0 6.98713L15.4895 27.4311C16.1415 28.292 17.0026 28.9936 18.0007 29.4772C18.9989 29.9608 20.1052 30.2126 21.2276 30.2114H21.7204C22.6461 30.2107 23.5629 30.3821 24.4183 30.7157C25.2736 31.0493 26.0508 31.5386 26.7052 32.1556L45.539 49.9056L27.1136 67.5162C23.9621 66.6419 20.6379 66.4718 17.4045 67.0192C14.1711 67.5667 11.1176 68.8167 8.4861 70.6702C5.85463 72.5236 3.71761 74.9294 2.24459 77.6969C0.771559 80.4643 0.00304298 83.5171 0 86.6132C0.00422062 89.4661 0.659032 92.2848 1.92007 94.8783C3.18111 97.4718 5.01891 99.7796 7.30895 101.645C9.599 103.511 12.2878 104.891 15.1932 105.692C18.0985 106.492 21.1526 106.695 24.1484 106.287C27.1442 105.878 30.0118 104.867 32.5569 103.322C35.102 101.778 37.2651 99.736 38.8997 97.3348C40.5343 94.9337 41.6022 92.2294 42.0309 89.4053C42.4597 86.5812 42.2395 83.7032 41.385 80.9664L60.0709 63.6013L66.8863 70.0244L64.7389 76.0893C64.3262 77.2583 64.2671 78.5125 64.568 79.7114C64.8689 80.9103 65.5181 82.0066 66.4427 82.8774L89.4657 104.576C90.118 105.194 90.8936 105.685 91.7479 106.019C92.6022 106.354 93.5182 106.527 94.4434 106.527C95.3686 106.527 96.2847 106.354 97.139 106.019C97.9932 105.685 98.7688 105.194 99.4212 104.576L110.588 94.0516C111.244 93.4368 111.764 92.7058 112.12 91.9007C112.475 91.0956 112.658 90.2323 112.658 89.3603C112.658 88.4884 112.475 87.625 112.12 86.8199C111.764 86.0148 111.244 85.2838 110.588 84.669L87.5647 62.9709C86.6407 62.0995 85.4775 61.4877 84.2054 61.2041C82.9332 60.9205 81.6025 60.9762 80.3621 61.3651L73.9269 63.3889L67.1679 57.0189L86.0369 39.4812C89.1671 40.2687 92.4473 40.3682 95.6248 39.7719C98.8022 39.1757 101.792 37.8997 104.363 36.0424C106.935 34.185 109.019 31.7959 110.456 29.0592C111.893 26.3226 112.644 23.3115 112.651 20.2581C112.651 18.4666 112.411 16.748 111.932 15.1024L96.8654 29.309L84.4879 26.8937L81.9251 15.2351L96.9992 1.02845C93.4133 0.119792 89.6367 0.118096 86.0499 1.02353C82.4632 1.92897 79.193 3.70954 76.5692 6.18576C73.9453 8.66198 72.0605 11.7463 71.1047 15.1279C70.1488 18.5095 70.1557 22.0689 71.1248 25.4471L52.5374 43.217L33.7459 25.5201C32.4254 24.276 31.6834 22.5885 31.683 20.8288V20.3577C31.6831 19.301 31.4154 18.2597 30.9023 17.3202C30.3892 16.3807 29.6454 15.5703 28.7329 14.9564L7.04066 0.351628ZM74.9549 70.9932C75.2819 70.6843 75.6704 70.4391 76.098 70.2719C76.5257 70.1046 76.9842 70.0185 77.4473 70.0185C77.9103 70.0185 78.3688 70.1046 78.7965 70.2719C79.2242 70.4391 79.6127 70.6843 79.9397 70.9932L100.456 90.3357C101.097 90.9615 101.452 91.7995 101.444 92.6694C101.436 93.5393 101.066 94.3715 100.413 94.9866C99.7606 95.6018 98.8776 95.9507 97.9546 95.9582C97.0316 95.9658 96.1423 95.6314 95.4784 95.027L74.9549 75.6912C74.627 75.383 74.3669 75.0169 74.1895 74.6138C74.012 74.2107 73.9206 73.7786 73.9206 73.3422C73.9206 72.9058 74.012 72.4737 74.1895 72.0706C74.3669 71.6675 74.627 71.3014 74.9549 70.9932ZM21.122 73.3422L24.4381 74.948L28.1626 75.1205L30.1833 78.0733L33.3164 79.9777L33.4995 83.4879L35.2033 86.6132L33.4995 89.7385L33.3164 93.2487L30.1833 95.1531L28.1626 98.1059L24.4381 98.2784L21.3907 98.1059L18.8951 96.1101L17.4691 94.8783L16.3996 94.094L14.2605 91.4059L13.191 89.0538L12.0607 87.0377L11.0519 84.0136L11.7649 80.6534L12.0607 78.0733L14.0813 75.1205L17.8058 74.948L21.122 73.3422Z" fill="black"/>
<path d="M15.565 0.00574724L8.75293 6.44247L23.7395 26.274C24.3704 27.1091 25.2034 27.7896 26.1692 28.2588C27.1349 28.7279 28.2054 28.9721 29.2913 28.971H29.7681C30.6638 28.9703 31.5508 29.1366 32.3784 29.4602C33.2059 29.7838 33.9578 30.2585 34.5911 30.857L52.8133 48.0752L34.9862 65.1583C31.937 64.3102 28.7207 64.1451 25.5923 64.6762C22.4639 65.2072 19.5095 66.4198 16.9635 68.2177C14.4175 70.0156 12.3498 72.3494 10.9246 75.0339C9.49944 77.7184 8.75587 80.6798 8.75293 83.6832C8.75701 86.4506 9.39056 89.1848 10.6107 91.7006C11.8307 94.2165 13.6089 96.4551 15.8246 98.2649C18.0403 100.075 20.6418 101.413 23.4528 102.19C26.2638 102.967 29.2187 103.164 32.1173 102.767C35.0158 102.371 37.7903 101.39 40.2527 99.8918C42.7152 98.3936 44.8081 96.4128 46.3896 94.0836C47.9711 91.7543 49.0043 89.1311 49.4192 86.3916C49.8341 83.6521 49.6209 80.8604 48.7942 78.2055L66.8734 61.3606L73.4675 67.5913L71.3898 73.4745C70.9906 74.6085 70.9333 75.8251 71.2245 76.9881C71.5156 78.1511 72.1437 79.2145 73.0383 80.0593L95.3138 101.107C95.9449 101.707 96.6953 102.183 97.5219 102.508C98.3484 102.833 99.2347 103 100.13 103C101.025 103 101.911 102.833 102.738 102.508C103.564 102.183 104.315 101.707 104.946 101.107L115.75 90.8987C116.385 90.3023 116.888 89.5933 117.232 88.8123C117.576 88.0313 117.753 87.1938 117.753 86.348C117.753 85.5021 117.576 84.6646 117.232 83.8836C116.888 83.1027 116.385 82.3936 115.75 81.7972L93.4745 60.7491C92.5805 59.9038 91.455 59.3103 90.2242 59.0352C88.9934 58.7601 87.7059 58.8142 86.5058 59.1914L80.2795 61.1546L73.74 54.9754L91.9963 37.9631C95.0248 38.727 98.1986 38.8235 101.273 38.2451C104.347 37.6668 107.24 36.429 109.728 34.6273C112.216 32.8256 114.232 30.508 115.623 27.8534C117.013 25.1987 117.739 22.2778 117.746 19.3159C117.746 17.578 117.514 15.9109 117.051 14.3146L102.473 28.0956L90.4976 25.7526L88.018 14.4433L102.603 0.662293C99.1332 -0.219144 95.4792 -0.220789 92.0089 0.657523C88.5386 1.53584 85.3747 3.26306 82.836 5.6651C80.2973 8.06714 78.4737 11.0591 77.5489 14.3394C76.6241 17.6197 76.6308 21.0724 77.5684 24.3494L59.5845 41.587L41.4031 24.4202C40.1255 23.2134 39.4076 21.5765 39.4072 19.8695V19.4125C39.4073 18.3875 39.1484 17.3773 38.6519 16.466C38.1554 15.5546 37.4358 14.7685 36.5529 14.173L15.565 0.00574724ZM81.2741 68.5311C81.5905 68.2314 81.9664 67.9936 82.3802 67.8314C82.794 67.6691 83.2376 67.5856 83.6856 67.5856C84.1336 67.5856 84.5772 67.6691 84.991 67.8314C85.4048 67.9936 85.7807 68.2314 86.097 68.5311L105.947 87.2942C106.568 87.9012 106.911 88.7141 106.903 89.558C106.896 90.4018 106.537 91.209 105.906 91.8057C105.274 92.4024 104.42 92.7409 103.527 92.7482C102.634 92.7556 101.774 92.4312 101.131 91.8449L81.2741 73.0883C80.9569 72.7894 80.7053 72.4342 80.5336 72.0432C80.3618 71.6522 80.2735 71.233 80.2735 70.8097C80.2735 70.3864 80.3618 69.9672 80.5336 69.5762C80.7053 69.1852 80.9569 68.8301 81.2741 68.5311ZM29.1891 70.8097L32.3976 72.3674L36.0012 72.5348L37.9562 75.3991L40.9876 77.2464L41.1647 80.6515L42.8132 83.6832L41.1647 86.7149L40.9876 90.1199L37.9562 91.9672L36.0012 94.8316L32.3976 94.9989L29.1891 96.5566L25.9806 94.9989L22.377 94.8316L20.422 91.9672L17.3906 90.1199L17.2135 86.7149L15.565 83.6832L17.2135 80.6515L17.3906 77.2464L20.422 75.3991L22.377 72.5348L25.9806 72.3674L29.1891 70.8097Z" fill="white"/>
</svg>
