<svg width="60" height="72" viewBox="0 0 60 72" fill="none" xmlns="http://www.w3.org/2000/svg">
<path d="M29.7713 4.44267C32.5913 4.44267 35.2957 5.61283 37.2897 7.69574C39.2837 9.77864 40.404 12.6037 40.404 15.5493V17.7707H19.1387V15.5493C19.1387 12.6037 20.2589 9.77864 22.2529 7.69574C24.2469 5.61283 26.9514 4.44267 29.7713 4.44267ZM44.657 17.7707V15.5493C44.657 11.4254 43.0887 7.47036 40.2971 4.5543C37.5055 1.63823 33.7193 0 29.7713 0C25.8234 0 22.0372 1.63823 19.2456 4.5543C16.454 7.47036 14.8857 11.4254 14.8857 15.5493V17.7707H0V62.1974C0 64.5539 0.896176 66.8139 2.49138 68.4802C4.08658 70.1466 6.25014 71.0827 8.5061 71.0827H51.0366C53.2925 71.0827 55.4561 70.1466 57.0513 68.4802C58.6465 66.8139 59.5427 64.5539 59.5427 62.1974V17.7707H44.657Z" fill="white"/>
</svg>
