<svg width="39" height="22" viewBox="0 0 39 22" fill="none" xmlns="http://www.w3.org/2000/svg">
<path fill-rule="evenodd" clip-rule="evenodd" d="M19.5894 16.3697C19.5894 16.3697 19.2428 16.3697 18.8962 16.0178C18.6254 15.743 18.2029 15.314 18.2029 15.314L17.3336 14.4876L3.70288 0.644981C3.2961 0.232006 2.74438 0 2.1691 0C1.59382 0 1.0421 0.232006 0.635315 0.644981C0.228531 1.05796 0 1.61807 0 2.20211C0 2.78614 0.228531 3.34626 0.635315 3.75923L17.9662 21.3539C18.1675 21.5587 18.4065 21.7212 18.6697 21.8321C18.9329 21.9429 19.215 22 19.5 22C19.785 22 20.0671 21.9429 20.3303 21.8321C20.5935 21.7212 20.8326 21.5587 21.0338 21.3539L38.3647 3.75923C38.5661 3.55475 38.7259 3.31199 38.8349 3.04482C38.9439 2.77765 39 2.49129 39 2.20211C39 1.61807 38.7715 1.05796 38.3647 0.644981C37.9579 0.232006 37.4062 0 36.8309 0C36.2556 0 35.7039 0.232006 35.2971 0.644981L21.6691 14.6103L20.9759 15.314C20.9759 15.314 20.5534 15.743 20.2826 16.0178C19.936 16.3697 19.5894 16.3697 19.5894 16.3697Z" fill="#5C5858"/>
</svg>
