<svg width="1219" height="195" viewBox="0 0 1219 195" fill="none" xmlns="http://www.w3.org/2000/svg">
<path fill-rule="evenodd" clip-rule="evenodd" d="M175 181.5V192.5L176 193.5H240.5H305V181.5H175Z" fill="white"/>
<path fill-rule="evenodd" clip-rule="evenodd" d="M1060 181V192.077L1061.01 193L1062.02 192.077H1187.98L1188.99 193L1190 192.077V181H1060Z" fill="white"/>
<path fill-rule="evenodd" clip-rule="evenodd" d="M622 117L619 120V121L615 125V126L610 131V132L606 136L605 139L610 144V145L622 157H623L641 139L638 136V135L634 131V130L630 126V125L626 121V120L623 117H622Z" fill="white"/>
<path fill-rule="evenodd" clip-rule="evenodd" d="M873 3L872 4V25L871 26V42L870 43V50L869 51L870 52H871V51L873 48V45L875 42V40L876 39V38L877 37V36L878 35L879 32L881 30V29L884 26V25L891 18H892L897 14H899L900 13H902L903 12H905L906 11H911L912 10H931L932 11V163L931 164V170L930 171V173L929 174V176L928 177V179L926 181V182L922 186H921L916 189H913V192H914L915 191L916 192H975V190L974 189H971L970 188L967 187L960 180V179L958 176V173L957 172V167L956 166V106L955 105V101L956 100V97L955 96V95L956 94L955 93V92L956 91L955 90L956 89L955 88V87L956 86V10L957 9H958L959 10H975L976 11H982L983 12H984L985 13H987L988 14L991 15L993 17H994L1004 27V28L1008 33V34L1009 35V37L1011 39V41L1012 42V44L1013 45V46L1015 49V51L1016 52L1017 51V42L1016 41V10L1015 9V3H873Z" fill="white"/>
<path fill-rule="evenodd" clip-rule="evenodd" d="M714 3V4L713 5L714 6V9L713 10V28L712 29V43L711 44V52H712L714 49V46L717 41V39L718 38V37L719 36V35L720 34L721 31L723 29V28L727 24V23L734 17H735L737 15H738L741 13H744L747 11H753L754 10H768L769 9H770L771 10V85L772 86V166L771 167V171L770 172V174L769 175V177L768 178V179L766 181V182L762 186L759 187L757 189H754L753 190V191L754 192H815V190L814 189H811L809 187H807L801 181V180L799 178V176L798 175V171L797 170V10L798 9H799L800 10H814L815 11H820L821 12H823L824 13H826L827 14H829L830 15H831L833 17H834L836 19H837L842 24V25L845 28L846 31L848 33V34L849 35V36L852 41V43L853 44V47L855 49V52H856L857 51L856 50V35L855 34V3H714Z" fill="white"/>
<path fill-rule="evenodd" clip-rule="evenodd" d="M533 3H484V4L485 5H487L488 6H490L491 7H492L494 9H495L498 12V13L502 18V21L503 22V25L504 26V30L505 31V48L506 49V97L507 98V146L506 147L503 144V143L499 139V138L494 133V132L490 128V127L487 124V123L482 118V117L478 113V112L474 108V107L470 103V102L466 98V97L458 88V87L455 84V83L450 78V77L446 73V72L443 69V68L439 64V63L434 58V57L430 53V52L427 49V48L423 44V43L418 38V37L414 33V32L410 28V27L406 23V22L402 18V17L397 12V11L391 4H349V5L350 6H354L357 9H358L369 20V21L373 25V135L372 136V161L371 162V166L370 167V172L369 173V176L368 177V178L366 180V181L361 186H360L359 187H357L354 189H351L350 190V191L351 192H404L405 191V190H404L403 189H400L399 188H398L397 187L394 186L389 181V180L387 178V176L386 175V172L385 171V169L384 168V162L383 161V147L382 146V123L381 122V39L380 38L381 37H382L385 40V41L390 46V47L395 52V53L399 57V58L402 61V62L407 67V68L411 72V73L415 77V78L419 82V83L423 87V88L428 93V94L431 97V98L435 102V103L440 108V109L444 113V114L447 117V118L452 123V124L456 128V129L461 134V135L464 138V139L468 143V144L473 149V150L477 154V155L480 158V159L490 170V171L493 174V175L496 178V179L501 184V185L505 189V190L507 192H508L509 193H511L512 194H516V185L515 184V37L516 36V25L517 24V21L518 20V19L519 18V17L520 16L521 13L526 8H527L528 7H529L530 6L533 5L534 4L533 3Z" fill="white"/>
<path fill-rule="evenodd" clip-rule="evenodd" d="M1113 0L1112 0.897436H1106L1105 1.79487H1103L1102 2.69231H1098L1097 3.58974H1094L1089 6.28205H1087L1086 7.17949H1085L1084 8.07692H1083L1082 8.97436H1081L1080 9.87179L1077 10.7692L1075 12.5641L1072 13.4615L1068 17.0513H1067L1061 22.4359H1060V23.3333L1054 28.7179V29.6154L1050 33.2051V34.1026L1048 35.8974L1047 38.5897L1045 40.3846V41.2821L1044 42.1795V43.0769L1043 43.9744V44.8718L1040 49.359V51.1538L1039 52.0513V53.8462L1038 54.7436V56.5385L1036 59.2308V61.9231L1035 62.8205V66.4103L1034 67.3077V71.7949L1033 72.6923V76.2821L1032 77.1795V99.6154L1033 100.513V103.205L1034 104.103V108.59L1035 109.487V113.077L1036 113.974V116.667L1038 119.359V121.154L1039 122.051V123.846L1040 124.744V126.538L1042 128.333V130.128L1043 131.026L1044 133.718L1046 135.513L1047 138.205L1049 140V140.897L1051 142.692V143.59L1058 149.872V150.769L1060 152.564H1061L1067 157.949H1068L1071 160.641H1072L1074 162.436L1077 163.333L1079 165.128H1080L1083 166.923H1085L1087 168.718H1089L1090 169.615H1092L1093 170.513H1095L1096 171.41H1098L1099 172.308H1102L1103 173.205H1107L1108 174.103H1112L1113 175H1137L1138 174.103H1141L1142 173.205H1147L1148 172.308H1151L1152 171.41H1154L1155 170.513H1157L1158 169.615H1160L1161 168.718H1163L1164 167.821H1165L1166 166.923H1167L1168 166.026L1171 165.128L1173 163.333L1176 162.436L1178 160.641H1179L1181 158.846H1182L1186 155.256H1187L1196 147.179V146.282L1200 142.692V141.795L1204 137.308L1205 134.615L1207 132.821V131.923L1209 129.231V127.436L1212 122.949V121.154L1213 120.256V118.462L1215 115.769V113.077L1216 112.179V108.59L1217 107.692V102.308L1218 101.41V96.0256L1219 95.1282V80.7692L1218 79.8718V74.4872L1217 73.5897V68.2051L1216 67.3077V63.7179L1215 62.8205V60.1282L1213 57.4359V54.7436L1212 53.8462V52.0513L1209 47.5641V45.7692L1208 44.8718L1207 42.1795L1205 40.3846L1204 37.6923L1200 33.2051V32.3077L1196 28.7179V27.8205L1186 18.8462H1185L1181 15.2564H1180L1175 11.6667H1174L1173 10.7692L1170 9.87179L1168 8.07692H1167L1166 7.17949H1164L1161 5.38462H1159L1156 3.58974H1153L1152 2.69231H1148L1147 1.79487H1145L1144 0.897436H1138L1137 0H1113ZM1119 6.28205H1130L1131 7.17949H1135L1136 8.07692H1139L1140 8.97436H1143L1144 9.87179H1146L1147 10.7692H1148L1149 11.6667H1150L1151 12.5641L1154 13.4615L1156 15.2564H1157L1159 17.0513H1160L1165 21.5385H1166L1167 22.4359V23.3333L1172 27.8205V28.7179L1175 31.4103L1176 34.1026L1178 35.8974V36.7949L1179 37.6923V38.5897L1180 39.4872V40.3846L1183 44.8718V46.6667L1184 47.5641V49.359L1185 50.2564V52.0513L1186 52.9487V54.7436L1187 55.641V59.2308L1188 60.1282V64.6154L1189 65.5128V68.2051L1190 69.1026V77.1795L1191 78.0769V101.41L1190 102.308V109.487L1189 110.385V113.077L1188 113.974V117.564L1187 118.462V122.051L1186 122.949V124.744L1184 127.436V130.128L1183 131.026V132.821L1181 134.615L1179 140L1177 141.795V142.692L1175 144.487V145.385L1172 148.077V148.974L1164 156.154H1163L1160 158.846H1159L1157 160.641L1154 161.538L1152 163.333H1150L1149 164.231H1147L1145 166.026H1142L1141 166.923H1137L1136 167.821H1116L1115 166.923H1111L1110 166.026H1108L1107 165.128H1105L1102 163.333H1100L1099 162.436H1098L1096 160.641L1093 159.744L1090 157.051H1089L1078 147.179V146.282L1075 143.59V142.692L1073 140.897V140L1072 139.103V138.205L1071 137.308V136.41L1068 131.923V130.128L1067 129.231V127.436L1065 124.744V122.051L1064 121.154V118.462L1063 117.564V113.974L1062 113.077V111.282L1061 110.385V103.205L1060 102.308V74.4872L1061 73.5897V66.4103L1062 65.5128V62.8205L1063 61.9231V58.3333L1064 57.4359V54.7436L1065 53.8462V51.1538L1067 48.4615V46.6667L1068 45.7692V43.9744L1069 43.0769V42.1795L1070 41.2821V40.3846L1071 39.4872V38.5897L1072 37.6923V36.7949L1073 35.8974L1074 33.2051L1076 31.4103V30.5128L1078 28.7179V27.8205L1090 17.0513H1091L1096 13.4615H1097L1098 12.5641H1099L1100 11.6667H1101L1106 8.97436H1109L1110 8.07692H1114L1115 7.17949H1118L1119 6.28205Z" fill="white"/>
<path fill-rule="evenodd" clip-rule="evenodd" d="M631 0L629 2V3L627 6V8L624 13V15L623 16V17L620 22V24L619 25V26L616 31V33L613 38V40L612 41V43L610 45V47L609 48V50L606 55V57L604 60V62L601 67V69L600 70V72L598 74V76L597 77V79L595 82V84L593 87V89L590 94V96L589 97V99L587 101V103L586 104V106L585 107V109L584 110V111L582 114V116L579 121V123L578 124V126L575 131V133L574 134V136L573 137V138L570 143V145L567 150V152L566 153V154L565 155V156L564 157V158L563 159V160L562 161V162L561 163V164L560 165L559 168L557 170V171L556 172V173L554 175V176L543 187H542L540 189L537 190V192H594L595 191V190H594L593 189H588L586 187H584L582 185H581L578 182V181L576 179V177L574 174V164L575 163V161L576 160V157L577 156V153L580 148V146L581 145V143L582 142V140L584 137V135L585 134V132L588 127V125L589 124V122L592 117V115L593 114V112L596 107V105L597 104V102L599 99V97L601 94V92L603 89V87L605 84V82L606 81V80L607 79V77L610 72V70L611 69V67L614 62V60L615 59V57L618 52V50L619 49V47L621 44H622L623 45V47L625 50V52L628 57V59L631 64V66L634 71V73L636 76V78L639 83V85L642 90V92L644 95V97L647 102V104L650 109V111L651 112V113L654 118V120L655 121V123L657 125V127L659 130V132L660 133V134L662 137V139L663 140V141L666 146V148L669 153V155L671 158V160L674 165V168L676 171V176L677 177L676 178V182L674 184V185L673 186H672L667 189H664L663 190H659V191L660 192H728L729 191V190H728L727 189H726L724 187H723L710 174V173L708 171V170L707 169V168L706 167V166L705 165V164L702 159V157L700 155V154L699 153V151L698 150V149L695 144V142L694 141V140L691 135V133L690 132V131L687 126V124L684 119V117L682 114V112L679 107V105L678 104V103L676 100V98L673 93V91L671 88V86L670 85V84L668 81V79L667 78V77L664 72V70L663 69V67L661 65V63L660 62V60L658 58V56L656 53V51L654 49V47L651 42V40L649 37V35L648 34V33L647 32V31L646 30V29L645 28V27L642 22V20L641 19V18L638 13V11L637 10V9L635 7V5L634 4L633 1L632 0H631Z" fill="white"/>
<path fill-rule="evenodd" clip-rule="evenodd" d="M228 0L227 0.871795H222L221 1.74359H219L218 2.61538H214L213 3.48718H210L207 5.23077H205L202 6.97436H200L198 8.71795H196L195 9.58974L192 10.4615L190 12.2051H189L187 13.9487H186L183 16.5641H182L168 28.7692V29.641L165 32.2564V33.1282L161 37.4872V38.359L160 39.2308V40.1026L159 40.9744V41.8462L158 42.7179V43.5897L155 47.9487V49.6923L153 51.4359V53.1795L152 54.0513V56.6667L151 57.5385V60.1538L149 62.7692V66.2564L148 67.1282V73.2308L147 74.1026V96.7692L148 97.641V103.744L149 104.615V108.103L150 108.974V110.718L151 111.59V114.205L152 115.077V116.821L153 117.692V119.436L155 122.051V123.795L156 124.667V125.538L157 126.41V127.282L158 128.154V129.026L159 129.897L160 132.513L162 134.256V135.128L164 136.872V137.744L167 140.359V141.231L181 153.436H182L184 155.179H185L187 156.923H188L193 160.41H194L197 162.154H199L201 163.897H203L204 164.769H206L207 165.641H209L210 166.513H212L213 167.385H216L217 168.256H222L223 169.128H226L227 170H252L253 169.128H256L257 168.256H262L263 167.385H266L267 166.513H268L269 165.641H271L272 164.769H275L276 163.897H277L278 163.026H279L280 162.154H281L282 161.282H283L284 160.41L287 159.538L289 157.795L292 156.923L295 154.308H296L300 150.821H301L310 142.974V142.103L314 138.615V137.744L316 136V135.128L318 133.385L319 130.769L321 129.026V128.154L322 127.282V125.538L323 124.667V123.795L326 119.436V117.692L327 116.821V114.205L329 111.59V108.974L330 108.103V104.615L331 103.744V99.3846L332 98.5128V92.4103L333 91.5385V79.3333L332 78.4615V72.359L331 71.4872V67.1282L330 66.2564V61.8974L329 61.0256V58.4103L327 55.7949V54.0513L326 53.1795V51.4359L325 50.5641V48.8205L324 47.9487V47.0769L323 46.2051V45.3333L322 44.4615V43.5897L321 42.7179V41.8462L320 40.9744L319 38.359L317 36.6154V35.7436L315 34V33.1282L313 31.3846V30.5128L308 26.1538V25.2821L301 19.1795H300L296 15.6923H295L292 13.0769H291L289 11.3333H288L287 10.4615H286L285 9.58974L282 8.71795L280 6.97436H278L277 6.10256H275L270 3.48718H267L266 2.61538H262L261 1.74359H259L258 0.871795H252L251 0H228ZM235 6.10256H245L246 6.97436H249L250 7.84615H254L255 8.71795H258L263 11.3333H265L266 12.2051H267L269 13.9487H270L272 15.6923H273L278 20.0513H279L282 22.6667V23.5385L288 28.7692V29.641L289 30.5128L290 33.1282L292 34.8718V35.7436L293 36.6154V37.4872L294 38.359V39.2308L297 43.5897V45.3333L299 47.9487V49.6923L300 50.5641V53.1795L301 54.0513V57.5385L302 58.4103V60.1538L303 61.0256V65.3846L304 66.2564V74.1026L305 74.9744V97.641L304 98.5128V106.359L303 107.231V110.718L302 111.59V113.333L301 114.205V117.692L300 118.564V121.179L298 123.795V125.538L297 126.41V128.154L296 129.026V130.769L294 132.513V133.385L293 134.256L292 136.872L290 138.615L289 141.231L286 143.846V144.718L278 151.692H277L274 154.308H273L271 156.051L268 156.923L266 158.667H264L259 161.282H256L255 162.154H251L250 163.026H230L229 162.154H225L224 161.282H222L221 160.41H219L218 159.538H216L215 158.667L212 157.795L210 156.051L207 155.179L204 152.564H203L193 143.846V142.974L190 140.359V139.487L188 137.744L187 135.128L185 133.385V131.641L182 127.282V125.538L181 124.667V122.923L180 122.051V120.308L179 119.436V117.692L178 116.821V113.333L177 112.462V108.974L176 108.103V103.744L175 102.872V95.0256L174 94.1538V78.4615L175 77.5897V69.7436L176 68.8718V64.5128L177 63.641V59.2821L178 58.4103V54.9231L180 52.3077V49.6923L181 48.8205V47.0769L182 46.2051V44.4615L183 43.5897V42.7179L185 40.1026V38.359L186 37.4872V36.6154L188 34.8718L189 32.2564L191 30.5128V29.641L193 27.8974V27.0256L197 23.5385V22.6667L201 19.1795H202L205 16.5641H206L209 13.9487H210L212 12.2051H214L215 11.3333H216L221 8.71795H224L225 7.84615H229L230 6.97436H234L235 6.10256Z" fill="white"/>
<path fill-rule="evenodd" clip-rule="evenodd" d="M50 0L49 1H44L41 3H38L37 4H35L34 5H33L32 6H31L30 7H29L28 8L25 9L22 12H21L13 20V21L11 23L10 26L8 28V29L7 30V32L6 33V34L5 35V37L4 38V42L3 43V57L4 58V62L5 63V65L6 66V67L7 68V69L8 70L9 73L11 75V76L22 87H23L26 90H27L29 92H30L31 93L34 94L36 96H37L38 97H39L40 98H41L42 99H43L44 100H45L46 101H47L48 102H49L50 103H51L52 104H53L54 105H55L56 106H57L58 107H59L60 108H61L62 109L65 110L67 112H68L69 113L72 114L74 116H75L77 118H78L81 121H82L91 130V131L95 136V138L98 143V148L99 149V157L98 158V162L97 163V164L96 165V166L95 167L94 170L92 172V173L86 179H85L83 181H82L81 182H80L79 183H78L73 186H69L68 187H50L49 186H46L45 185H43L40 183H38L37 182H36L34 180H33L32 179H31L29 177H28L16 165V164L14 162V161L10 156V154L9 153V152L7 150V148L6 147V145L5 144V143L4 142V140L3 139V136L2 135H0V141L1 142V158L2 159V179L3 180V184H5L6 185H9L10 186H13L16 188H19L20 189H23L24 190H27L30 192H35L36 193H40L41 194H45L46 195H70L71 194H73L74 193H79L80 192H83L84 191H85L88 189H90L91 188H92L94 186H95L96 185L99 184L102 181H103L110 174V173L113 170V169L115 167V166L117 163V161L118 160V159L119 158V156L120 155V151L121 150V133L120 132V128L119 127V125L117 122V120L116 119L115 116L113 114V113L106 106V105H105L99 99H98L95 96H94L92 94H91L90 93H89L87 91L84 90L82 88H81L80 87H78L76 85H75L72 83H70L68 81H67L66 80H64L63 79H62L60 77H59L58 76H57L56 75H55L54 74L51 73L49 71H48L46 69L43 68L40 65H39L31 57V56L29 54V53L26 48V46L25 45V32L26 31V29L27 28V27L28 26L29 23L33 19V18L34 17H35L38 14H39L40 13H41L43 11H44L45 10H47L48 9H51L52 8H56L57 7H65L66 8H69L70 9H73L74 10H77L78 11H79L80 12L83 13L88 17H89L97 25V26L99 28V29L102 32V33L103 34V36L106 41V43L107 44V46L108 47V49L109 50V52L110 53H111L112 52V46L111 45V29L110 28V9L109 8H105L104 7H101L100 6H97L96 5H94L93 4H89L88 3H84L83 2H80L79 1H74L73 0H50Z" fill="white"/>
</svg>
